<svg xmlns="http://www.w3.org/2000/svg" xmlns:xlink="http://www.w3.org/1999/xlink" width="500" zoomAndPan="magnify" viewBox="0 0 375 374.999991" height="500" preserveAspectRatio="xMidYMid meet" version="1.0"><defs><g/></defs><rect x="-37.5" width="450" fill="#ffffff" y="-37.499999" height="449.999989" fill-opacity="1"/><rect x="-37.5" width="450" fill="#000000" y="-37.499999" height="449.999989" fill-opacity="1"/><g fill="#ffffff" fill-opacity="1"><g transform="translate(37.500002, 201.90074)"><g><path d="M 67.15625 -72.734375 L 67.15625 0 L 53.875 0 L 22.234375 -45.78125 L 21.703125 -45.78125 L 21.703125 0 L 6.328125 0 L 6.328125 -72.734375 L 19.8125 -72.734375 L 51.203125 -26.984375 L 51.84375 -26.984375 L 51.84375 -72.734375 Z M 67.15625 -72.734375 "/></g></g></g><g fill="#ffffff" fill-opacity="1"><g transform="translate(111.005582, 201.90074)"><g><path d="M 6.03125 0 L 6.03125 -54.546875 L 21.171875 -54.546875 L 21.171875 0 Z M 13.640625 -61.578125 C 11.410156 -61.578125 9.488281 -62.328125 7.875 -63.828125 C 6.269531 -65.335938 5.46875 -67.144531 5.46875 -69.25 C 5.46875 -71.351562 6.269531 -73.148438 7.875 -74.640625 C 9.488281 -76.128906 11.410156 -76.875 13.640625 -76.875 C 15.890625 -76.875 17.816406 -76.128906 19.421875 -74.640625 C 21.035156 -73.148438 21.84375 -71.351562 21.84375 -69.25 C 21.84375 -67.144531 21.035156 -65.335938 19.421875 -63.828125 C 17.816406 -62.328125 15.890625 -61.578125 13.640625 -61.578125 Z M 13.640625 -61.578125 "/></g></g></g><g fill="#ffffff" fill-opacity="1"><g transform="translate(138.206195, 201.90074)"><g><path d="M 35.046875 -54.546875 L 35.046875 -43.1875 L 24.78125 -43.1875 L 24.78125 -16.765625 C 24.78125 -14.679688 25.253906 -13.269531 26.203125 -12.53125 C 27.148438 -11.800781 28.382812 -11.4375 29.90625 -11.4375 C 30.613281 -11.4375 31.320312 -11.5 32.03125 -11.625 C 32.738281 -11.757812 33.285156 -11.863281 33.671875 -11.9375 L 36.046875 -0.671875 C 35.285156 -0.429688 34.21875 -0.15625 32.84375 0.15625 C 31.46875 0.476562 29.800781 0.675781 27.84375 0.75 C 22.351562 0.976562 17.941406 -0.210938 14.609375 -2.828125 C 11.285156 -5.441406 9.632812 -9.421875 9.65625 -14.765625 L 9.65625 -43.1875 L 2.203125 -43.1875 L 2.203125 -54.546875 L 9.65625 -54.546875 L 9.65625 -67.609375 L 24.78125 -67.609375 L 24.78125 -54.546875 Z M 35.046875 -54.546875 "/></g></g></g><g fill="#ffffff" fill-opacity="1"><g transform="translate(177.054066, 201.90074)"><g><path d="M 30.890625 1.0625 C 25.304688 1.0625 20.488281 -0.078125 16.4375 -2.359375 C 12.394531 -4.640625 9.28125 -7.878906 7.09375 -12.078125 C 4.914062 -16.285156 3.828125 -21.269531 3.828125 -27.03125 C 3.828125 -32.632812 4.914062 -37.554688 7.09375 -41.796875 C 9.28125 -46.035156 12.351562 -49.335938 16.3125 -51.703125 C 20.28125 -54.066406 24.941406 -55.25 30.296875 -55.25 C 35.097656 -55.25 39.429688 -54.226562 43.296875 -52.1875 C 47.171875 -50.15625 50.242188 -47.085938 52.515625 -42.984375 C 54.796875 -38.878906 55.9375 -33.738281 55.9375 -27.5625 L 55.9375 -23.40625 L 18.78125 -23.40625 L 18.78125 -23.359375 C 18.78125 -19.296875 19.894531 -16.09375 22.125 -13.75 C 24.351562 -11.40625 27.359375 -10.234375 31.140625 -10.234375 C 33.671875 -10.234375 35.859375 -10.765625 37.703125 -11.828125 C 39.554688 -12.890625 40.863281 -14.460938 41.625 -16.546875 L 55.609375 -15.625 C 54.546875 -10.5625 51.847656 -6.515625 47.515625 -3.484375 C 43.179688 -0.453125 37.640625 1.0625 30.890625 1.0625 Z M 18.78125 -32.78125 L 41.6875 -32.78125 C 41.664062 -36.019531 40.625 -38.691406 38.5625 -40.796875 C 36.5 -42.910156 33.828125 -43.96875 30.546875 -43.96875 C 27.179688 -43.96875 24.421875 -42.875 22.265625 -40.6875 C 20.109375 -38.507812 18.945312 -35.875 18.78125 -32.78125 Z M 18.78125 -32.78125 "/></g></g></g><g fill="#ffffff" fill-opacity="1"><g transform="translate(236.817296, 201.90074)"><g><path d="M 51.421875 -38.984375 L 37.578125 -38.140625 C 37.191406 -39.890625 36.226562 -41.390625 34.6875 -42.640625 C 33.15625 -43.898438 31.070312 -44.53125 28.4375 -44.53125 C 26.09375 -44.53125 24.109375 -44.035156 22.484375 -43.046875 C 20.867188 -42.066406 20.070312 -40.765625 20.09375 -39.140625 C 20.070312 -37.835938 20.585938 -36.734375 21.640625 -35.828125 C 22.691406 -34.929688 24.488281 -34.210938 27.03125 -33.671875 L 36.890625 -31.671875 C 47.378906 -29.515625 52.632812 -24.59375 52.65625 -16.90625 C 52.65625 -13.332031 51.609375 -10.191406 49.515625 -7.484375 C 47.421875 -4.785156 44.550781 -2.6875 40.90625 -1.1875 C 37.257812 0.3125 33.082031 1.0625 28.375 1.0625 C 21.15625 1.0625 15.398438 -0.441406 11.109375 -3.453125 C 6.828125 -6.472656 4.332031 -10.585938 3.625 -15.796875 L 18.5 -16.578125 C 18.976562 -14.359375 20.070312 -12.679688 21.78125 -11.546875 C 23.5 -10.410156 25.707031 -9.84375 28.40625 -9.84375 C 31.0625 -9.84375 33.195312 -10.363281 34.8125 -11.40625 C 36.4375 -12.445312 37.257812 -13.769531 37.28125 -15.375 C 37.21875 -18.070312 34.890625 -19.882812 30.296875 -20.8125 L 20.84375 -22.6875 C 10.28125 -24.800781 5.023438 -30 5.078125 -38.28125 C 5.054688 -43.539062 7.15625 -47.679688 11.375 -50.703125 C 15.601562 -53.734375 21.210938 -55.25 28.203125 -55.25 C 35.085938 -55.25 40.507812 -53.789062 44.46875 -50.875 C 48.4375 -47.96875 50.753906 -44.003906 51.421875 -38.984375 Z M 51.421875 -38.984375 "/></g></g></g><g fill="#ffffff" fill-opacity="1"><g transform="translate(292.994027, 201.90074)"><g><path d="M 21.171875 -31.53125 L 21.171875 0 L 6.03125 0 L 6.03125 -72.734375 L 20.734375 -72.734375 L 20.734375 -44.921875 L 21.375 -44.921875 C 22.632812 -48.140625 24.628906 -50.664062 27.359375 -52.5 C 30.097656 -54.332031 33.535156 -55.25 37.671875 -55.25 C 43.359375 -55.25 47.925781 -53.425781 51.375 -49.78125 C 54.832031 -46.132812 56.550781 -41.117188 56.53125 -34.734375 L 56.53125 0 L 41.40625 0 L 41.40625 -32.03125 C 41.425781 -35.394531 40.578125 -38.007812 38.859375 -39.875 C 37.148438 -41.75 34.753906 -42.6875 31.671875 -42.6875 C 28.597656 -42.6875 26.082031 -41.707031 24.125 -39.75 C 22.175781 -37.800781 21.191406 -35.0625 21.171875 -31.53125 Z M 21.171875 -31.53125 "/></g></g></g><g fill="#ffffff" fill-opacity="1"><g transform="translate(37.500002, 311.400733)"><g><path d="M 7.015625 0 L 7.015625 -80.734375 L 38.859375 -80.734375 C 44.984375 -80.734375 50.203125 -79.566406 54.515625 -77.234375 C 58.828125 -74.910156 62.117188 -71.691406 64.390625 -67.578125 C 66.660156 -63.460938 67.796875 -58.726562 67.796875 -53.375 C 67.796875 -48.007812 66.640625 -43.285156 64.328125 -39.203125 C 62.015625 -35.117188 58.671875 -31.925781 54.296875 -29.625 C 49.921875 -27.320312 44.632812 -26.171875 38.4375 -26.171875 L 24.078125 -26.171875 L 24.078125 0 Z M 24.078125 -39.84375 L 35.671875 -39.84375 C 40.554688 -39.84375 44.203125 -41.097656 46.609375 -43.609375 C 49.015625 -46.117188 50.21875 -49.375 50.21875 -53.375 C 50.21875 -57.394531 49.015625 -60.628906 46.609375 -63.078125 C 44.203125 -65.535156 40.53125 -66.765625 35.59375 -66.765625 L 24.078125 -66.765625 Z M 24.078125 -39.84375 "/></g></g></g><g fill="#ffffff" fill-opacity="1"><g transform="translate(109.390134, 311.400733)"><g><path d="M 23.96875 1.140625 C 18.1875 1.140625 13.390625 -0.367188 9.578125 -3.390625 C 5.765625 -6.410156 3.859375 -10.914062 3.859375 -16.90625 C 3.859375 -21.425781 4.921875 -24.972656 7.046875 -27.546875 C 9.179688 -30.128906 11.972656 -32.015625 15.421875 -33.203125 C 18.878906 -34.398438 22.609375 -35.179688 26.609375 -35.546875 C 31.859375 -36.078125 35.613281 -36.628906 37.875 -37.203125 C 40.132812 -37.785156 41.265625 -39.050781 41.265625 -41 L 41.265625 -41.234375 C 41.265625 -43.722656 40.484375 -45.648438 38.921875 -47.015625 C 37.359375 -48.390625 35.144531 -49.078125 32.28125 -49.078125 C 29.257812 -49.078125 26.851562 -48.421875 25.0625 -47.109375 C 23.28125 -45.796875 22.097656 -44.125 21.515625 -42.09375 L 5.984375 -43.359375 C 7.140625 -48.878906 10.007812 -53.253906 14.59375 -56.484375 C 19.1875 -59.710938 25.109375 -61.328125 32.359375 -61.328125 C 36.859375 -61.328125 41.0625 -60.617188 44.96875 -59.203125 C 48.882812 -57.785156 52.046875 -55.570312 54.453125 -52.5625 C 56.859375 -49.550781 58.0625 -45.644531 58.0625 -40.84375 L 58.0625 0 L 42.140625 0 L 42.140625 -8.390625 L 41.671875 -8.390625 C 40.191406 -5.578125 37.988281 -3.285156 35.0625 -1.515625 C 32.132812 0.253906 28.4375 1.140625 23.96875 1.140625 Z M 28.78125 -10.453125 C 32.457031 -10.453125 35.476562 -11.519531 37.84375 -13.65625 C 40.207031 -15.800781 41.390625 -18.460938 41.390625 -21.640625 L 41.390625 -28.0625 C 40.734375 -27.613281 39.710938 -27.21875 38.328125 -26.875 C 36.953125 -26.539062 35.484375 -26.25 33.921875 -26 C 32.359375 -25.75 30.957031 -25.53125 29.71875 -25.34375 C 26.78125 -24.925781 24.410156 -24.097656 22.609375 -22.859375 C 20.804688 -21.628906 19.90625 -19.832031 19.90625 -17.46875 C 19.90625 -15.15625 20.738281 -13.40625 22.40625 -12.21875 C 24.070312 -11.039062 26.195312 -10.453125 28.78125 -10.453125 Z M 28.78125 -10.453125 "/></g></g></g><g fill="#ffffff" fill-opacity="1"><g transform="translate(173.791711, 311.400733)"><g><path d="M 23.5 -35 L 23.5 0 L 6.703125 0 L 6.703125 -60.546875 L 22.703125 -60.546875 L 22.703125 -49.859375 L 23.40625 -49.859375 C 24.78125 -53.378906 27.035156 -56.171875 30.171875 -58.234375 C 33.316406 -60.296875 37.132812 -61.328125 41.625 -61.328125 C 47.925781 -61.328125 52.984375 -59.296875 56.796875 -55.234375 C 60.609375 -51.179688 62.515625 -45.617188 62.515625 -38.546875 L 62.515625 0 L 45.71875 0 L 45.71875 -35.546875 C 45.75 -39.253906 44.804688 -42.148438 42.890625 -44.234375 C 40.972656 -46.328125 38.332031 -47.375 34.96875 -47.375 C 31.570312 -47.375 28.816406 -46.289062 26.703125 -44.125 C 24.585938 -41.957031 23.519531 -38.914062 23.5 -35 Z M 23.5 -35 "/></g></g></g><g fill="#ffffff" fill-opacity="1"><g transform="translate(242.804661, 311.400733)"><g><path d="M 38.90625 -60.546875 L 38.90625 -47.9375 L 27.515625 -47.9375 L 27.515625 -18.609375 C 27.515625 -16.296875 28.039062 -14.726562 29.09375 -13.90625 C 30.144531 -13.09375 31.507812 -12.6875 33.1875 -12.6875 C 33.976562 -12.6875 34.765625 -12.757812 35.546875 -12.90625 C 36.335938 -13.050781 36.945312 -13.164062 37.375 -13.25 L 40.015625 -0.75 C 39.171875 -0.488281 37.984375 -0.179688 36.453125 0.171875 C 34.929688 0.523438 33.082031 0.742188 30.90625 0.828125 C 24.8125 1.085938 19.914062 -0.226562 16.21875 -3.125 C 12.53125 -6.03125 10.695312 -10.453125 10.71875 -16.390625 L 10.71875 -47.9375 L 2.4375 -47.9375 L 2.4375 -60.546875 L 10.71875 -60.546875 L 10.71875 -75.046875 L 27.515625 -75.046875 L 27.515625 -60.546875 Z M 38.90625 -60.546875 "/></g></g></g></svg>